# xmcd
#
# Track frame offsets:
#	150
#	17124
#	35504
#	50344
#	70270
#	89369
#	107087
#	119711
#	133348
#	149095
#
# Disc length: 2226 seconds
#
# Revision: 1
# Processed by: cddbd v1.5PL3 Copyright (c) Steve Scherf et al.
# Submitted via: CDex 1.50Beta5
#
DISCID=9a08b00a
DTITLE=Carmen - Arco Del Pay Pay
DYEAR=1900
DGENRE=World
TTITLE0=Un Beso De Amor
TTITLE1=Los Tangos De La Plazuela
TTITLE2=Desde Aquel Dia
TTITLE3=Almohadita De Flores
TTITLE4=Yo S? Que Me Quieres
TTITLE5=Se?ores Yo Soy De Cai
TTITLE6=Desde La Torre Tavira
TTITLE7=Qu? No Dar?a Yo
TTITLE8=Arco Del Pay Pay
TTITLE9=Las Flores De Mei Azotea
EXTD=
EXTT0=
EXTT1=
EXTT2=
EXTT3=
EXTT4=
EXTT5=
EXTT6=
EXTT7=
EXTT8=
EXTT9=
PLAYORDER=
